<svg width="94" height="94" viewBox="0 0 94 94" fill="none" xmlns="http://www.w3.org/2000/svg">
<path d="M49.1268 62.3925L80.323 29.6511C80.8438 29.1048 81.1343 28.379 81.1343 27.6242C81.1343 26.8695 80.8438 26.1437 80.323 25.5974L80.2878 25.5621C80.0353 25.2964 79.7314 25.0848 79.3946 24.9401C79.0578 24.7955 78.695 24.721 78.3285 24.721C77.9619 24.721 77.5992 24.7955 77.2623 24.9401C76.9255 25.0848 76.6216 25.2964 76.3692 25.5621L46.9942 56.3941L17.6309 25.5621C17.3784 25.2964 17.0746 25.0848 16.7377 24.9401C16.4009 24.7955 16.0382 24.721 15.6716 24.721C15.305 24.721 14.9423 24.7955 14.6055 24.9401C14.2687 25.0848 13.9648 25.2964 13.7123 25.5621L13.677 25.5974C13.1562 26.1437 12.8657 26.8695 12.8657 27.6243C12.8657 28.379 13.1562 29.1048 13.677 29.6511L44.8733 62.3925C45.1476 62.6804 45.4776 62.9097 45.8432 63.0663C46.2087 63.2229 46.6023 63.3037 47 63.3037C47.3978 63.3037 47.7913 63.2229 48.1569 63.0663C48.5225 62.9097 48.8524 62.6804 49.1268 62.3925Z" fill="#F6A52D"/>
</svg>
