<svg width="28" height="28" viewBox="0 0 28 28" fill="none" xmlns="http://www.w3.org/2000/svg">
  <path d="M14 2C7.373 2 2 7.373 2 14C2 20.627 7.373 26 14 26C20.627 26 26 20.627 26 14C26 7.373 20.627 2 14 2ZM14 24C8.486 24 4 19.514 4 14C4 8.486 8.486 4 14 4C19.514 4 24 8.486 24 14C24 19.514 19.514 24 14 24Z" fill="#F6A52D"/>
  <circle cx="10" cy="10" r="1.5" fill="#F6A52D"/>
  <circle cx="18" cy="10" r="1.5" fill="#F6A52D"/>
  <circle cx="10" cy="18" r="1.5" fill="#F6A52D"/>
  <circle cx="18" cy="18" r="1.5" fill="#F6A52D"/>
  <circle cx="14" cy="14" r="1.5" fill="#F6A52D"/>
</svg> 