<svg width="609" height="553" viewBox="0 0 609 553" fill="none" xmlns="http://www.w3.org/2000/svg">
<g clip-path="url(#clip0_2_9)">
<path d="M252.552 296.045C252.029 297.488 251.704 299.037 250.951 300.345C248.439 304.718 245.802 309.018 243.133 313.287C242.84 313.748 242.013 313.873 241.427 314.156C238.372 311.801 235.211 309.583 232.292 307.072C224.526 300.387 219.273 291.859 214.553 282.903C208.149 270.746 202.414 258.347 198.615 245.08C196.02 236.009 193.32 226.917 189.94 218.118C184.76 204.631 177.957 192.191 164.468 184.94C162.626 183.946 161.328 182.23 160.92 180.065C160.324 176.884 161.726 174.237 163.202 171.579C167.869 163.157 170.559 154.169 170.496 144.502C170.485 142.629 170.977 141.739 172.557 140.808C177.79 137.722 181.243 133.128 183.127 127.353C174.765 137.272 163.338 141.101 151.198 143.821C154.851 144.167 158.482 144.282 162.113 144.188C163.38 144.156 164.018 144.376 164.416 145.663C165.671 149.722 165.724 153.782 164.792 157.894C163.38 164.172 160.292 169.696 156.839 175.011C154.809 178.15 155.144 181.048 157.216 183.904C158.032 185.034 158.932 186.133 159.916 187.116C162.459 189.659 165.221 192.003 167.618 194.671C173.384 201.116 177.329 208.743 180.312 216.726C184.937 229.125 189.019 241.732 193.236 254.288C199.547 273.037 209.007 289.861 223.679 303.348C228.953 308.192 234.939 312.251 240.601 316.677C235.787 324.127 229.612 330.383 223.208 336.441C217.368 341.966 210.912 346.674 204.193 351.037C203.617 351.414 202.864 351.518 202.194 351.759C201.88 350.89 201.503 350.043 201.252 349.154C197.642 336.389 195.12 323.394 193.142 310.284C190.819 294.946 188.38 279.628 186.036 264.29C183.985 250.898 181.139 237.725 175.603 225.264C170.224 213.158 163.233 202.151 153.574 192.976C152.894 192.327 151.973 191.95 151.156 191.438C150.968 191.071 150.78 190.695 150.591 190.329L150.12 190.684C150.487 190.925 150.842 191.166 151.209 191.417C152.381 193.112 153.626 194.754 154.714 196.502C164.217 211.714 169.836 228.465 174.001 245.771C177.832 261.674 179.757 277.902 182.007 294.067C184.037 308.61 187.219 322.913 191.478 336.954C193.288 342.918 195.831 348.672 198.029 354.521C193.78 356.666 189.626 359.02 185.262 360.903C176.042 364.879 166.477 367.756 156.535 369.441C147.975 370.895 139.394 371.701 130.729 371.596C130.593 371.46 130.425 371.345 130.321 371.188C121.321 357.817 112.342 344.435 103.342 331.063C91.5583 313.549 82.6107 294.789 78.2259 274.031C75.7142 262.135 75.4317 250.238 78.32 238.353C81.7107 224.353 87.7385 211.505 95.1164 199.222C99.1245 192.557 103.363 186.007 107.046 179.165C108.899 175.722 109.757 171.747 111.075 168.011C109.265 170.826 108.041 173.881 106.283 176.58C100.705 185.108 94.7919 193.415 89.2769 201.974C85.2793 208.178 81.3653 214.477 78.0061 221.037C73.6317 229.574 72.1771 238.928 71.3503 248.439C69.4667 270.191 72.8259 290.907 82.663 310.525C90.449 326.041 100.474 340.03 111.274 353.527C115.764 359.135 120.138 364.848 124.565 370.519C124.104 370.686 123.613 371.042 123.183 370.989C117.616 370.299 111.996 369.818 106.502 368.729C100.945 367.631 95.514 365.936 90.0199 364.492C87.6025 356.101 85.1851 347.71 82.7572 339.319C82.9456 343.033 83.2804 346.747 83.7618 350.43C84.2851 354.448 84.9339 358.455 85.5304 362.462C81.3863 360.725 77.1479 359.198 73.1294 357.199C59.4202 350.367 47.3436 341.307 36.7845 330.206C28.1508 321.124 20.9195 311.08 15.1115 299.999C9.70105 289.673 5.83947 278.791 3.22322 267.408C0.272091 254.549 -0.481388 241.533 0.376741 228.476C1.06743 217.982 3.14997 207.686 6.43597 197.621C10.8941 183.957 17.2777 171.307 25.7962 159.756C36.7949 144.847 50.232 132.626 66.3167 123.356C68.8387 127.269 71.319 131.203 73.8933 135.064C74.7201 136.299 75.8189 137.355 76.7921 138.506C77.0328 139.082 77.284 139.647 77.5247 140.222L77.577 140.264L77.5247 140.212C77.2735 139.657 77.0224 139.092 76.7817 138.538L68.0434 122.76C70.262 121.4 72.355 119.736 74.7305 118.742C81.3549 115.959 88.0839 113.417 94.7919 110.853C96.0791 110.361 97.4814 110.184 98.8419 109.87C99.7105 111.554 100.59 113.239 101.469 114.913C101.584 114.85 101.688 114.777 101.803 114.714C101.563 113.082 101.322 111.45 101.092 109.817C102.421 109.294 103.708 108.572 105.089 108.269C113.891 106.333 122.849 105.266 131.828 105.402C139.457 105.517 147.106 106.312 154.694 107.191C164.102 108.269 173.091 111.094 181.882 114.547C185.628 116.022 189.291 117.717 192.995 119.318C193.226 127.52 193.466 135.723 193.697 143.916C194.063 156.931 194.973 169.895 198.866 182.429C200.352 187.211 202.184 191.898 203.858 196.627C204.015 196.564 204.183 196.512 204.34 196.449C204.015 195.162 203.596 193.896 203.387 192.588C201.776 182.461 200.08 172.333 198.657 162.184C196.763 148.739 196.669 135.19 196.888 121.651C201.284 122.938 204.538 126.15 208.327 128.483C210.305 129.697 211.989 131.371 213.81 132.836C213.643 133.191 213.517 133.568 213.318 133.903C208.473 141.854 205.281 150.403 203.994 159.631C202.707 168.765 203.303 177.867 204.8 186.918C205.47 190.946 206.443 194.932 207.27 198.929C207.667 194.932 207.615 190.998 207.678 187.075C207.908 173.326 208.285 159.578 211.78 146.186C212.774 142.399 214.752 138.862 216.27 135.211C218.101 135.545 219.43 136.456 219.87 138.37C219.692 142.555 219.43 146.741 219.346 150.926C219.158 160.248 219.179 169.57 218.875 178.893C218.697 184.25 217.661 189.523 214.679 194.127C213.078 196.606 211.089 198.835 209.206 201.262C210.786 201.932 212.335 201.67 213.58 200.572C214.7 199.578 215.903 198.416 216.458 197.077C217.86 193.718 219.147 190.276 220.068 186.761C222.057 179.102 221.261 171.265 221.22 163.481C221.167 155.351 221.115 147.232 221.073 139.103C222.423 140.076 223.92 140.881 225.092 142.032C237.807 154.399 247.958 168.545 255.084 184.846C258.82 193.394 261.761 202.183 263.613 211.296C266.366 224.887 267.046 238.593 265.581 252.425C264.21 265.326 261.154 277.756 256.047 289.673C255.482 290.991 254.76 292.247 254.111 293.533C253.065 293.157 251.987 292.822 250.961 292.383C241.27 288.166 231.988 283.217 223.407 277.023C223.239 276.981 223.061 276.939 222.894 276.898C222.967 276.981 223.03 277.107 223.114 277.117C223.218 277.117 223.333 277.034 223.438 276.992C223.742 277.504 223.92 278.185 224.349 278.509C228.744 281.815 233.003 285.362 237.66 288.25C242.432 291.2 247.612 293.502 252.604 296.086L252.552 296.045ZM63.3237 252.425C63.3237 241.481 66.4527 231.416 71.2352 221.874C74.6573 215.042 78.77 208.565 82.3595 201.806C86.5246 193.97 89.392 185.694 89.4339 176.685C89.4339 174.603 89.1095 172.521 88.9315 170.428C88.7536 170.439 88.5653 170.46 88.3874 170.47C88.3874 171.223 88.3874 171.966 88.3874 172.72C88.5025 181.854 86.0327 190.119 80.7688 197.673C76.7398 203.449 72.941 209.423 69.4876 215.565C64.3597 224.678 61.7958 234.534 62.34 245.07C62.4656 247.539 62.9888 249.987 63.3237 252.436V252.425Z" fill="#F6A52D"/>
<path d="M124.523 370.477C120.096 364.806 115.732 359.104 111.232 353.485C100.433 339.988 90.4071 325.999 82.6211 310.483C72.784 290.865 69.4248 270.149 71.3085 248.397C72.1352 238.897 73.5898 229.533 77.9642 220.995C81.3235 214.435 85.2374 208.136 89.235 201.932C94.7605 193.373 100.673 185.066 106.241 176.539C107.999 173.839 109.223 170.784 111.034 167.97C109.725 171.705 108.867 175.681 107.005 179.123C103.321 185.966 99.0721 192.505 95.0745 199.18C87.6967 211.463 81.6688 224.312 78.2782 238.311C75.4003 250.207 75.6724 262.093 78.184 273.989C82.5688 294.747 91.5164 313.517 103.3 331.022C112.3 344.393 121.279 357.775 130.279 371.146C130.383 371.303 130.551 371.418 130.687 371.554C134.684 377.372 138.797 383.116 142.669 389.027C146.186 394.395 149.472 399.909 152.799 405.402C153.071 405.841 153.061 406.94 152.778 407.117C152.297 407.431 151.397 407.494 150.863 407.253C148.017 405.935 145.286 404.366 142.397 403.152C141.225 402.66 139.76 402.838 138.431 402.702C138.703 404 138.703 405.443 139.3 406.573C144.501 416.471 150.288 426.013 157.205 434.802C162.281 441.258 167.503 447.608 172.945 453.75C180.291 462.047 187.92 470.103 195.413 478.285C196.187 479.133 196.805 480.116 197.495 481.027L197.548 480.974C196.302 479.886 195.036 478.819 193.812 477.72C192.284 476.35 190.766 474.969 189.291 473.535C187.282 471.589 185.335 469.591 183.336 467.634C179.621 463.972 175.739 460.478 172.222 456.638C167.597 451.584 163.463 446.06 158.733 441.111C154.16 436.34 150.916 430.638 146.908 425.49C145.066 423.126 143.172 420.803 141.539 418.292C140.283 416.356 139.488 414.127 138.358 412.108C136.725 409.189 134.695 406.458 133.345 403.414C132.393 401.258 132.194 398.737 131.859 396.351C131.671 394.96 132.79 394.531 133.826 395.054C135.281 395.797 136.547 396.906 137.929 397.795C139.258 398.653 140.566 399.574 142.01 400.17C142.669 400.442 143.936 400.264 144.354 399.793C144.731 399.364 144.616 398.078 144.229 397.471C142.816 395.19 141.225 393.024 139.676 390.837C138.096 388.619 136.516 386.401 134.894 384.225C131.451 379.621 127.966 375.049 124.502 370.466L124.523 370.477Z" fill="white"/>
<path d="M223.354 276.992C231.936 283.186 241.218 288.135 250.909 292.351C251.934 292.801 253.012 293.125 254.059 293.502C257.376 294.82 260.631 296.306 264.011 297.415C268.354 298.838 272.77 300.083 277.207 301.161C291.429 304.645 305.86 306.204 320.511 305.189C323.954 304.948 327.397 304.718 330.819 304.352C342.331 303.107 353.591 300.648 364.684 297.352C367.175 296.609 369.655 295.835 372.073 294.904C378.697 292.362 385.394 289.966 391.851 287.046C396.142 285.111 400.663 283.636 404.734 281.177C408.941 278.634 413.357 276.416 417.459 273.706C424.439 269.103 431.231 264.248 437.269 258.41C439.08 256.663 441.016 255.093 443.684 254.706C445.851 254.392 447.462 255.156 447.504 257.343C447.577 261.528 447.525 265.744 447.054 269.898C445.914 279.932 444.574 289.955 443.182 299.958C442.607 304.08 441.696 308.16 440.922 312.251C437.95 327.925 433.816 343.294 427.914 358.11C424.575 366.49 420.442 374.557 416.559 382.718C415.439 385.072 414.006 387.269 412.698 389.529C412.488 389.885 412.153 390.178 411.703 390.691C411.557 389.195 411.473 388.211 412.781 387.353C413.577 386.83 413.87 385.522 414.32 384.528C415.879 381.117 417.47 377.717 418.924 374.264C420.41 370.749 422.074 367.265 423.089 363.613C424.314 359.208 426.836 355.306 427.725 350.796C428.133 348.746 428.667 346.726 429.222 344.717C429.536 343.566 430.122 342.489 430.415 341.338C431.754 336.127 433.052 330.896 434.339 325.675C435.051 322.787 436.108 319.91 436.296 316.981C436.558 312.994 438.033 309.301 438.379 305.346C438.735 301.171 439.624 297.038 439.917 292.864C440.451 285.121 440.723 277.368 441.089 269.626C441.1 269.312 441.058 268.998 441.016 268.391C440.409 268.82 440.001 269.082 439.624 269.396C434.036 273.926 428.092 277.933 421.917 281.648C414.78 285.948 407.34 289.599 399.658 292.801C396.226 294.234 392.699 295.459 389.225 296.787C376.897 301.506 364.098 304.341 351.08 306.319C336.722 308.506 322.301 309.112 307.807 308.286C302.92 308.003 298.033 307.721 293.187 307.062C288.865 306.476 284.575 305.545 280.336 304.498C273.524 302.814 266.732 300.993 259.992 299.047C257.428 298.304 255.022 297.059 252.541 296.044C247.539 293.46 242.359 291.169 237.597 288.208C232.94 285.32 228.681 281.773 224.286 278.467C223.846 278.143 223.668 277.463 223.375 276.95L223.354 276.981V276.992Z" fill="white"/>
<path d="M76.7503 138.444C75.777 137.303 74.6782 136.246 73.8515 135.012C71.2666 131.141 68.7864 127.207 66.2748 123.304C63.9516 119.066 61.44 114.913 59.3679 110.55C58.1017 107.892 57.7459 104.806 56.5633 102.096C54.9412 98.4025 54.9831 94.6882 55.4122 90.8274C55.7575 87.6886 56.7831 84.895 58.9179 82.6037C61.1993 80.1554 63.4388 77.6025 66.076 75.5727C68.2004 73.9405 70.8794 73.0302 73.3178 71.7956C78.6863 69.0753 84.1386 66.5119 89.4025 63.5928C92.5524 61.8455 95.2419 59.2403 98.4338 57.5872C102.923 55.254 105.822 51.5815 108.103 47.3441C109.192 45.3248 109.694 42.9916 110.374 40.7735C110.709 39.6853 110.437 38.8902 109.244 38.231C104.755 35.7618 100.297 33.2298 95.9326 30.5409C91.7152 27.9461 87.8223 24.7654 83.4374 22.495C78.3619 19.8584 74.2282 15.893 69.0794 13.3505C65.4272 11.5509 62.3505 8.57948 59.033 6.11027C57.7145 5.12676 56.4587 4.07002 55.1715 3.05513C55.297 2.9505 55.4331 2.83541 55.5587 2.73079C60.54 5.82777 65.49 8.97707 70.5027 12.0217C74.5736 14.491 78.6863 16.8765 82.8095 19.2515C85.2479 20.664 87.7804 21.9195 90.2083 23.3529C97.8477 27.8833 105.393 32.5916 113.106 36.9964C119.761 40.7944 126.585 44.289 133.355 47.8777C137.384 50.0121 141.424 52.1465 145.516 54.1554C159.675 61.1131 173.845 68.0499 188.056 74.9031C190.473 76.0644 193.142 76.6818 195.622 77.7385C199.871 79.5486 204.015 81.6097 208.274 83.3779C211.487 84.7067 214.784 85.8367 218.091 86.9144C221.439 88.0129 224.851 88.9441 228.807 90.116C228.001 88.6826 227.394 87.7304 226.923 86.726C223.71 79.8206 220.613 72.8628 217.327 65.9888C212.45 55.798 207.5 45.6387 202.487 35.5107C200.719 31.9324 198.73 28.4483 196.773 24.9747C193.916 19.8898 190.871 14.9199 188.14 9.77224C186.172 6.06841 183.137 4.28974 179.15 4.12234C169.083 3.6829 159.016 3.38994 148.948 3.02374C143.852 2.83541 138.766 2.6157 133.669 2.43783C124.471 2.11348 115.272 1.82052 106.073 1.50664C106.356 1.17183 106.638 0.847485 106.91 0.512676C107.601 0.627766 108.302 0.847485 108.993 0.837022C131.807 0.56499 154.631 0.261569 177.444 -6.74278e-07C179.621 -0.0209262 181.944 -0.125554 183.954 0.544064C185.722 1.14044 187.407 2.54246 188.663 3.98632C190.159 5.70222 191.279 7.79477 192.368 9.83502C195.13 15.0246 197.747 20.2978 200.478 25.5083C202.351 29.0656 204.434 32.5183 206.244 36.1071C209.289 42.1232 212.241 48.1811 215.139 54.26C219.995 64.4508 224.788 74.6624 229.571 84.8846C230.408 86.6737 231.14 88.5152 231.726 90.3985C231.967 91.1622 231.988 92.3864 231.549 92.8781C231.088 93.3803 229.843 93.5478 229.079 93.328C215.548 89.53 202.445 84.5498 189.511 79.0777C165.274 68.8242 142.083 56.4886 119.154 43.6507C118.359 43.2008 117.553 42.7614 116.622 42.2383C112.164 53.6322 102.955 59.753 92.7931 64.8902C86.0327 68.3115 79.3247 71.8166 72.648 75.3844C71.141 76.19 69.8329 77.3932 68.4725 78.4709C63.2818 82.6037 60.3202 87.7618 60.4563 94.6254C60.6551 104.628 63.5853 113.846 68.0016 122.676C70.9108 127.939 73.8306 133.202 76.7398 138.454V138.423L76.7503 138.444Z" fill="white"/>
<path d="M296.494 452.882C297.122 449.429 297.928 445.997 298.326 442.513C298.849 437.93 302.229 434.781 303.903 430.784C304.49 429.382 306.248 428.472 307.462 427.331C307.891 426.934 308.278 426.463 308.749 426.118C310.57 424.789 312.328 423.335 314.285 422.247C317.655 420.353 321.307 419.181 325.095 418.407C334.022 416.597 342.75 417.047 351.362 420.238C366.652 425.909 375.003 441.728 373.224 457.025C372.91 459.724 372.805 462.612 371.738 465.029C369.132 470.951 365.888 476.507 360.613 480.65C352.44 487.074 343.032 489.031 332.954 488.706C330.233 488.622 327.397 488.748 324.844 487.995C318.9 486.237 313.134 483.904 308.456 479.593C300.764 472.489 296.819 463.397 296.494 452.892V452.882ZM334.43 486.603C345.157 486.582 352.702 481.895 357.275 473.033C363.973 460.09 364.014 446.761 357.526 433.724C353.162 424.967 345.889 419.955 335.895 419.725C325.681 419.484 317.948 424.109 313.259 433.044C306.248 446.395 306.227 460.07 313.259 473.41C317.749 481.947 325.158 486.436 334.44 486.603H334.43Z" fill="white"/>
<path d="M240.59 316.667C234.929 312.251 228.943 308.181 223.668 303.337C208.996 289.861 199.536 273.026 193.226 254.277C189.008 241.732 184.927 229.125 180.301 216.716C177.319 208.722 173.384 201.095 167.607 194.66C165.211 191.992 162.448 189.648 159.905 187.106C158.921 186.122 158.021 185.024 157.205 183.894C155.133 181.038 154.798 178.139 156.828 175.001C160.282 169.675 163.369 164.161 164.782 157.883C165.703 153.772 165.661 149.712 164.405 145.652C164.007 144.366 163.369 144.146 162.103 144.177C158.471 144.271 154.83 144.156 151.188 143.811C163.327 141.091 174.755 137.261 183.117 127.343C181.233 133.128 177.779 137.711 172.547 140.798C170.967 141.729 170.475 142.629 170.485 144.491C170.548 154.159 167.859 163.157 163.191 171.569C161.716 174.226 160.313 176.873 160.91 180.054C161.318 182.22 162.605 183.936 164.457 184.93C177.947 192.17 184.749 204.621 189.929 218.107C193.309 226.906 196.009 235.999 198.605 245.07C202.403 258.337 208.138 270.735 214.543 282.893C219.263 291.849 224.527 300.387 232.281 307.062C235.201 309.573 238.361 311.791 241.417 314.145C244.127 315.913 246.712 317.943 249.58 319.408C255.21 322.285 260.955 324.943 266.742 327.485C269.212 328.573 271.902 329.191 274.497 329.975C280.661 331.848 286.825 333.7 292.926 335.876C289.734 335.113 286.532 334.422 283.361 333.585C278.327 332.256 273.241 331.053 268.302 329.421C261.928 327.307 255.649 324.88 249.737 321.605C246.702 319.921 243.636 318.299 240.59 316.646V316.667Z" fill="white"/>
<path d="M85.4886 362.431C84.8921 358.424 84.2432 354.416 83.72 350.399C83.2386 346.705 82.9037 343.001 82.7153 339.287C85.1327 347.678 87.5502 356.069 89.978 364.461C90.8362 367.296 91.6315 370.152 92.5734 372.956C94.0489 377.372 95.5036 381.808 97.1884 386.15C98.7268 390.126 100.59 393.966 102.222 397.9C103.153 400.16 103.813 402.535 104.755 404.784C106.283 408.446 107.863 412.087 109.548 415.686C116.318 430.115 123.654 444.26 132.058 457.799C138.682 468.461 145.893 478.767 153.019 489.093C155.981 493.383 159.413 497.348 162.637 501.46C166.404 506.263 170.067 511.149 173.97 515.847C176.858 519.32 180.019 522.564 183.106 525.86C188.401 531.53 193.676 537.222 199.076 542.809C202.006 545.843 205.166 548.647 208.212 551.567C208.526 551.86 208.724 552.278 208.756 553.01C208.337 552.874 207.814 552.843 207.5 552.582C204.151 549.704 200.876 546.743 197.495 543.908C195.601 542.328 193.404 541.104 191.593 539.44C187.889 536.04 184.383 532.42 180.73 528.967C176.942 525.389 172.986 521.988 169.292 518.326C166.843 515.899 164.719 513.147 162.459 510.542C162.249 510.301 162.124 509.977 161.904 509.747C156.651 504.097 151.952 497.966 146.887 492.159C143.193 487.932 140.189 483.234 136.903 478.725C134.119 474.916 131.493 470.993 128.887 467.059C122.106 456.837 116.203 446.102 110.72 435.147C108.396 430.512 106.042 425.888 104.001 421.127C101.678 415.718 99.7105 410.141 97.5233 404.669C96.7698 402.796 95.6396 401.07 94.9803 399.166C94.321 397.282 94.1012 395.263 93.5571 393.338C91.9245 387.562 90.1245 381.829 88.6071 376.022C87.5502 371.973 86.849 367.84 85.9699 363.749C85.8758 363.299 85.6769 362.881 85.52 362.452L85.4886 362.431Z" fill="white"/>
<path d="M390.083 428.032C389.539 432.866 389.926 437.742 389.853 442.597C389.779 447.535 389.832 452.474 389.832 457.412V472.227C389.832 477.155 389.832 482.094 389.832 487.231C388.586 487.44 387.414 487.639 386.064 487.869V419.265C389.497 419.265 392.887 419.212 396.268 419.317C396.833 419.338 397.513 419.976 397.9 420.499C407.695 433.515 417.459 446.562 427.234 459.599C431.608 465.437 435.972 471.265 440.357 477.092C440.576 477.385 440.922 477.574 441.508 478.066V419.369H445.233V487.325C442.408 487.325 439.572 487.649 436.872 487.179C435.626 486.959 434.507 485.306 433.575 484.113C431.179 481.037 428.992 477.804 426.595 474.728C424.429 471.945 422.022 469.35 419.856 466.567C418.788 465.196 418.108 463.533 417.082 462.12C414.121 458.092 411.128 454.085 408.062 450.14C404.273 445.265 400.359 440.483 396.571 435.608C395.598 434.352 394.97 432.835 394.018 431.569C393.013 430.24 391.789 429.079 390.658 427.855C390.459 427.917 390.271 427.98 390.072 428.043L390.083 428.032Z" fill="white"/>
<path d="M228.461 426.024V487.22H224.694V419.275C228.231 419.275 231.737 419.212 235.232 419.338C235.839 419.359 236.54 420.112 236.98 420.698C243.227 428.953 249.465 437.219 255.66 445.505C263.54 456.041 271.378 466.598 279.237 477.155C279.405 477.385 279.614 477.584 280.158 478.212V419.369H283.873V487.315C281.017 487.315 278.107 487.44 275.219 487.231C274.424 487.168 273.534 486.237 272.979 485.484C270.531 482.177 268.302 478.704 265.79 475.439C261.457 469.8 256.937 464.317 252.573 458.699C251.097 456.795 249.946 454.66 248.544 452.704C246.419 449.743 244.222 446.834 242.024 443.925C237.608 438.077 233.171 432.239 228.451 426.024H228.461Z" fill="white"/>
<path d="M151.135 191.427C151.941 191.929 152.873 192.316 153.553 192.965C163.223 202.141 170.203 213.148 175.582 225.253C181.118 237.714 183.964 250.877 186.015 264.279C188.359 279.618 190.808 294.935 193.121 310.274C195.099 323.384 197.621 336.379 201.231 349.143C201.483 350.032 201.859 350.88 202.173 351.748C203.251 355.076 204.141 358.486 205.459 361.709C207.039 365.57 208.881 369.326 210.807 373.019C212.272 375.813 214.041 378.449 215.694 381.138C216.458 382.373 217.285 383.576 218.08 384.79C217.986 384.894 217.892 384.999 217.787 385.104C213.088 380.249 209.687 374.453 205.909 368.928C202.791 364.366 200.771 359.24 197.998 354.511C195.79 348.662 193.247 342.918 191.447 336.944C187.187 322.902 184.006 308.6 181.976 294.057C179.715 277.892 177.8 261.664 173.97 245.76C169.805 228.465 164.185 211.714 154.683 196.491C153.595 194.744 152.349 193.101 151.177 191.406L151.125 191.427H151.135Z" fill="white"/>
<path d="M609 487.252H597.928C595.73 482.565 593.596 478.034 591.461 473.493C591.408 473.378 591.199 473.305 591.199 473.2C591.063 469.936 588.771 470.313 586.542 470.313C574.8 470.355 563.059 470.365 551.327 470.313C549.904 470.313 549.214 470.763 548.659 472.039C546.712 476.475 544.504 480.807 542.683 485.285C541.951 487.084 540.967 487.534 539.282 487.315C538.696 487.241 538.1 487.304 537.273 487.304C539.282 483.192 541.26 479.29 543.102 475.324C545.394 470.386 547.623 465.416 549.779 460.425C551.317 456.868 552.594 453.185 554.205 449.659C555.367 447.117 557.01 444.804 558.213 442.283C560.798 436.895 563.247 431.443 565.727 426.013C566.533 424.245 566.983 422.351 568.071 420.667C568.752 419.62 569.306 419.15 570.52 419.223C572.247 419.317 573.995 419.327 575.721 419.223C576.998 419.139 577.595 419.652 578.107 420.771C582.733 430.795 587.39 440.808 592.089 450.8C593.983 454.817 596.097 458.73 597.959 462.759C600.471 468.178 602.836 473.682 605.274 479.133C606.467 481.78 607.702 484.416 609 487.241V487.252ZM569.997 426.003C563.687 439.688 557.554 453.018 551.338 466.494H588.363C582.241 452.986 576.192 439.657 569.986 426.003H569.997Z" fill="white"/>
<path d="M491.959 484.521H531.339C532.407 487.273 532.365 487.325 529.717 487.325C514.637 487.325 499.547 487.325 484.467 487.325H482.604V419.411H491.959V484.511V484.521Z" fill="white"/>
<path d="M196.847 121.588C196.616 135.137 196.711 148.676 198.615 162.121C200.049 172.28 201.734 182.398 203.345 192.526C203.555 193.834 203.973 195.1 204.298 196.386C204.141 196.449 203.973 196.502 203.816 196.564C202.142 191.835 200.31 187.158 198.824 182.366C194.931 169.832 194.021 156.879 193.655 143.853C193.425 135.65 193.184 127.458 192.954 119.255C192.975 115.718 193.048 112.192 192.995 108.656C192.964 106.783 191.53 105.318 189.207 105.35C186.235 105.392 183.273 105.873 180.322 106.302C176.178 106.898 172.045 107.599 167.911 108.29C165.535 108.687 163.432 108.028 161.454 106.794C156.085 103.435 153.542 98.2246 151.994 92.355C151.91 92.0411 151.858 91.7168 151.784 91.3506C150.33 91.7377 148.959 92.2713 147.546 92.4387C144.145 92.8468 141.298 91.4447 138.766 89.3313C134.266 85.6065 131.242 80.7309 128.395 75.7506C126.647 72.7059 125.088 69.5461 123.372 66.3027C119.217 71.7433 113.807 75.1228 107.256 76.7236C117.208 71.7329 124.471 64.388 127.715 53.3811C128.05 55.4214 127.244 59.031 125.611 62.2954C125.057 63.394 124.994 64.252 125.643 65.361C129.107 71.3039 132.707 77.1317 137.688 81.955C138.787 83.0117 139.98 84.0057 141.236 84.8741C145.715 87.9711 150.445 88.1699 154.798 84.895C157.467 82.8862 159.623 80.1763 161.946 77.728C162.689 76.9433 163.233 75.9598 164.112 74.7357C162.009 79.9985 159.403 84.4765 155.604 88.1385C154.599 89.1011 154.411 89.9695 154.882 91.0681C156.138 93.9872 157.174 97.0633 158.838 99.7313C161.883 104.586 166.038 106.051 171.595 104.691C175.592 103.718 179.527 102.399 183.556 101.615C186.068 101.123 188.736 101.133 191.3 101.311C195.005 101.573 196.616 103.404 196.7 107.17C196.815 111.973 196.794 116.775 196.826 121.578L196.847 121.588Z" fill="white"/>
<path d="M216.228 135.169C214.7 138.82 212.722 142.346 211.738 146.144C208.243 159.537 207.866 173.285 207.636 187.033C207.573 190.956 207.636 194.88 207.228 198.887C206.391 194.88 205.417 190.904 204.758 186.876C203.262 177.825 202.665 168.723 203.952 159.589C205.25 150.361 208.431 141.802 213.277 133.861C213.475 133.526 213.612 133.149 213.768 132.794C218.425 126.819 223.197 120.939 227.687 114.84C231.297 109.932 232.595 104.157 232.951 98.1514C232.982 97.555 233.097 96.9691 233.348 96.4041C234.845 104.879 233.087 112.569 227.771 119.391C224.275 123.869 220.77 128.347 217.327 132.856C216.814 133.526 216.584 134.394 216.228 135.179V135.169Z" fill="white"/>
<path d="M101.05 109.765C101.291 111.397 101.531 113.029 101.762 114.662C101.647 114.724 101.542 114.798 101.427 114.86C100.548 113.176 99.6791 111.491 98.8 109.817C97.0419 103.372 95.8698 96.8435 95.8698 90.1474C95.8698 83.9011 97.8477 82.3107 103.907 84.1103C106.345 84.8323 108.679 86.0983 110.866 87.4375C116.486 90.8902 122.106 94.3011 128.636 95.7763C132.162 96.5715 135.626 96.7389 138.797 94.5313C138.891 94.4685 139.132 94.6045 139.31 94.6464L139.331 94.5731C135.626 98.3502 130.98 98.4339 126.501 97.0109C121.718 95.5043 117.177 93.2234 112.572 91.1936C109.056 89.6451 105.655 87.8037 102.086 86.3912C99.5012 85.3659 98.6535 85.8785 98.7059 88.6512C98.8105 93.757 99.2814 98.8629 99.7733 103.958C99.9617 105.915 100.61 107.829 101.05 109.765Z" fill="white"/>
<path d="M221.021 139.071C221.073 147.201 221.115 155.32 221.167 163.45C221.22 171.234 222.015 179.071 220.016 186.729C219.095 190.245 217.808 193.687 216.406 197.046C215.851 198.385 214.648 199.546 213.528 200.54C212.293 201.639 210.734 201.89 209.153 201.231C211.037 198.803 213.025 196.575 214.627 194.095C217.599 189.491 218.645 184.229 218.823 178.861C219.127 169.549 219.106 160.217 219.294 150.894C219.378 146.709 219.639 142.524 219.817 138.339C220.089 137.282 220.351 136.215 220.738 134.698C220.853 136.487 220.937 137.784 221.021 139.082V139.071Z" fill="white"/>
<path d="M340.133 529.386H337.758V518.128C337.632 518.117 337.507 518.096 337.391 518.086C335.686 520.869 333.959 523.631 332.295 526.425C331.395 527.931 330.673 527.722 329.878 526.372C328.182 523.484 326.456 520.607 324.436 517.217V529.375H322.039V512.373C323.41 511.965 324.206 512.509 324.907 513.744C326.895 517.27 329.019 520.712 331.28 524.531C333.321 520.639 335.121 516.987 337.151 513.472C337.59 512.718 338.867 512.446 340.144 511.735V529.396L340.133 529.386Z" fill="white"/>
<path d="M468.288 511.975C469.093 512.467 470.088 512.792 470.663 513.482C473.457 516.788 476.136 520.199 479.14 523.934C479.464 523.056 479.956 522.355 479.946 521.664C479.925 519.237 479.674 516.809 479.632 514.382C479.611 512.645 480.469 511.839 482.394 512.478V529.26C480.197 530.264 479.36 528.475 478.324 527.157C475.833 523.966 473.374 520.764 470.443 517.688V529.365H467.796V512.593C467.953 512.394 468.12 512.185 468.277 511.986L468.288 511.975Z" fill="white"/>
<path d="M284.24 511.745C285.412 512.457 286.406 512.781 286.982 513.461C289.755 516.746 292.413 520.136 295.113 523.484C295.427 523.872 295.783 524.217 296.39 524.876V512.656C298.692 512.017 298.922 512.153 298.922 514.183C298.922 519.174 298.922 524.175 298.922 529.019C296.672 530.819 295.908 528.821 294.956 527.607C292.256 524.144 289.629 520.618 286.647 516.705V529.375C285.768 529.438 285.067 529.48 284.229 529.532V511.745H284.24Z" fill="white"/>
<path d="M512.827 519.76C510.713 516.956 510.66 514.392 512.67 512.928C514.491 511.609 518.342 512.007 519.618 513.639C521.157 515.606 520.351 517.563 516.887 520.251C518.195 521.528 519.514 522.804 520.989 524.238C521.293 523.38 521.617 522.49 521.984 521.465C522.507 521.601 523.051 521.737 523.878 521.946C523.407 523.328 522.978 524.604 522.507 525.975C523.114 526.613 523.783 527.335 524.547 528.151C524.129 528.653 523.731 529.124 522.883 530.139C522.339 529.197 521.858 528.329 521.345 527.429C518.247 529.72 515.213 530.432 511.906 529.009C509.132 527.816 508.316 524.447 510.284 522.145C511.006 521.298 511.906 520.618 512.837 519.76H512.827ZM519.106 526.383C517.557 524.667 516.071 523.014 514.595 521.371C511.707 523.15 510.901 524.782 512.084 526.362C513.486 528.255 516.95 528.151 519.106 526.372V526.383ZM515.83 519.216C516.678 517.876 517.546 516.673 518.164 515.355C518.237 515.198 516.981 514.026 516.343 514.026C515.485 514.026 514.208 514.486 513.863 515.146C513.025 516.725 514.208 517.845 515.83 519.216Z" fill="white"/>
<path d="M372.69 513.555C372.533 514.947 372.177 515.627 370.545 515.104C369.069 514.633 367.395 514.392 365.867 514.581C364.904 514.696 363.69 515.606 363.25 516.485C362.664 517.657 363.606 518.598 364.81 519.027C365.605 519.31 366.432 519.498 367.227 519.781C368.734 520.325 370.314 520.754 371.717 521.497C373.391 522.386 373.789 524.029 373.402 525.786C373.004 527.617 371.717 529.019 369.99 529.218C367.468 529.511 364.873 529.344 362.33 529.093C361.503 529.009 360.749 528.067 359.964 527.523C360.77 525.525 361.137 525.472 363.366 526.665C365.616 527.868 367.709 528.308 369.969 526.289C371.319 525.085 371.183 524.144 370.032 523.505C368.493 522.658 366.725 522.166 364.998 521.758C361.796 520.994 360.666 519.948 360.655 517.353C360.655 514.727 362.183 512.865 364.977 512.321C367.656 511.798 370.252 512.09 372.659 513.545L372.69 513.555Z" fill="white"/>
<path d="M498.835 521.779H490.285V527.303H500.007V529.386H487.753V512.268C489.218 512.268 490.714 512.321 492.211 512.258C494.44 512.164 496.669 511.955 498.898 511.913C499.222 511.913 499.902 512.729 499.819 512.948C499.599 513.534 499.086 514.403 498.647 514.434C496.522 514.591 494.387 514.507 492.253 514.507C491.604 514.507 490.955 514.507 490.222 514.507V519.634H498.668C498.73 520.388 498.772 520.953 498.845 521.779H498.835Z" fill="white"/>
<path d="M389.141 512.404V514.424H379.66V519.666H388.115C388.157 520.408 388.189 520.973 388.23 521.716H379.681V527.199H389.444C389.486 528.004 389.518 528.622 389.56 529.354H376.939V512.383H389.141V512.404Z" fill="white"/>
<path d="M253.337 512.352H265.225C265.288 513.011 265.34 513.639 265.403 514.424H255.827V519.749C258.161 519.749 260.599 519.791 263.038 519.728C264.325 519.697 264.9 520.178 264.712 521.674H255.859V527.335C258.632 527.335 261.405 527.272 264.189 527.377C264.806 527.398 265.916 527.994 265.926 528.329C265.936 529.281 265.152 529.521 264.157 529.501C260.578 529.427 256.999 529.469 253.337 529.469V512.342V512.352Z" fill="white"/>
<path d="M347.919 521.769V527.22H357.788C357.83 528.015 357.861 528.632 357.892 529.365H345.544V512.383H357.401C357.453 513.001 357.505 513.629 357.568 514.413H348.003V519.613H356.459C356.501 520.377 356.522 520.973 356.563 521.758H347.919V521.769Z" fill="white"/>
<path d="M586.542 521.957V529.396C585.736 529.427 585.046 529.459 584.208 529.501V512.383H586.49V519.624H596.358V512.404C597.206 512.352 597.897 512.31 598.744 512.258V529.386H596.452V521.967H586.532L586.542 521.957Z" fill="white"/>
<path d="M319.203 529.354C317.518 529.731 316.189 529.668 315.875 527.544C315.52 525.085 313.291 525.598 311.773 525.326C310.162 525.033 308.403 525.012 306.813 525.368C306.017 525.546 305.222 526.728 304.856 527.628C304.238 529.155 303.453 529.919 301.549 529.26C302.731 526.613 303.903 523.976 305.086 521.35C306.279 518.682 307.441 516.004 308.738 513.388C308.989 512.875 309.753 512.415 310.339 512.342C310.842 512.279 311.71 512.666 311.909 513.084C314.348 518.316 316.702 523.589 319.078 528.862C319.151 529.019 319.172 529.197 319.224 529.375L319.203 529.354ZM310.392 514.832C309.084 517.866 307.964 520.482 306.813 523.15H314.034C312.809 520.356 311.689 517.782 310.392 514.832Z" fill="white"/>
<path d="M544.598 514.905C542.129 514.738 539.994 514.455 537.869 514.487C536.467 514.507 535.473 515.439 535.504 516.945C535.536 518.358 536.373 518.808 537.828 519.048C539.648 519.352 541.386 520.241 543.144 520.911C544.787 521.538 545.729 522.721 545.823 524.51C545.917 526.341 545.205 527.795 543.594 528.674C540.266 530.484 536.928 529.804 533.683 528.454C533.296 528.287 533.328 527.094 533.171 526.383C533.819 526.351 534.678 526.048 535.065 526.351C537.242 528.046 539.596 527.837 541.909 527.021C542.558 526.791 543.207 525.671 543.259 524.918C543.301 524.384 542.443 523.537 541.804 523.254C540.276 522.606 538.665 522.103 537.043 521.727C533.024 520.816 531.099 516.265 534.96 513.095C535.462 512.676 536.268 512.415 536.928 512.425C539.094 512.457 541.271 512.53 543.405 512.823C544.996 513.043 545.373 514.005 544.598 514.915V514.905Z" fill="white"/>
<path d="M429.892 512.394H432.026C432.026 516.851 432.372 521.235 431.828 525.493C431.65 526.916 429.41 528.685 427.767 529.197C421.802 531.06 417.899 528.517 417.773 522.082C417.721 519.352 417.784 516.61 417.742 513.88C417.731 512.907 417.805 512.122 419.05 512.164C420.316 512.206 420.264 513.095 420.264 513.995C420.253 516.799 420.128 519.603 420.316 522.396C420.452 524.28 420.484 526.435 422.964 527.126C426.25 528.036 429.808 526.414 429.881 522.428C429.944 519.111 429.892 515.794 429.892 512.383V512.394Z" fill="white"/>
<path d="M455.248 515.428C454.191 515.104 453.103 514.591 451.973 514.466C450.686 514.319 449.283 514.277 448.08 514.654C447.326 514.895 446.405 515.962 446.353 516.715C446.301 517.437 447.086 518.598 447.808 518.933C449.336 519.655 451.073 519.938 452.695 520.45C456.326 521.601 457.435 523.641 455.845 527.031C455.363 528.057 453.898 528.873 452.716 529.291C450.173 530.17 447.619 529.741 445.139 528.695C443.779 528.12 443.036 527.377 443.81 525.86C445.547 526.414 447.263 527.105 449.043 527.46C450.099 527.67 451.408 527.617 452.349 527.157C453.134 526.77 453.93 525.661 454.003 524.813C454.045 524.238 452.946 523.317 452.172 522.982C450.12 522.093 447.923 521.549 445.872 520.649C443.862 519.76 443.35 517.96 443.664 515.909C443.967 513.995 445.265 512.802 447.054 512.635C449.325 512.415 451.648 512.488 453.919 512.718C455.06 512.833 456.347 513.461 455.238 515.428H455.248Z" fill="white"/>
<path d="M561.353 512.404C562.169 512.342 562.808 512.289 563.383 512.247C563.383 516.642 563.802 520.984 563.247 525.19C562.808 528.58 558.82 530.285 555.011 529.647C550.93 528.957 549.496 526.163 549.339 523.307C549.14 519.728 549.297 516.119 549.297 512.352C550.072 512.321 550.762 512.289 551.725 512.247C551.725 514.152 551.725 515.93 551.725 517.709C551.736 519.571 551.61 521.465 551.83 523.307C552.207 526.362 553.944 527.617 557.094 527.439C559.49 527.303 561.28 525.368 561.332 522.7C561.395 519.32 561.342 515.93 561.342 512.415L561.353 512.404Z" fill="white"/>
<path d="M567.255 527.523C567.538 526.948 567.831 526.362 568.166 525.703C570.447 527.126 572.76 527.942 575.397 527.439C576.747 527.178 577.877 526.665 578.045 525.169C578.222 523.558 576.946 523.003 575.732 522.606C574.214 522.114 572.634 521.821 571.127 521.308C568.574 520.44 567.569 519.038 567.695 516.799C567.81 514.623 569.181 513.158 571.567 512.499C574.403 511.714 577.061 512.132 579.75 513.629C579.531 514.204 579.311 514.779 579.081 515.397C577.898 515.041 576.841 514.528 575.753 514.434C574.455 514.319 573.053 514.319 571.86 514.738C571.117 514.999 570.311 516.108 570.238 516.903C570.175 517.552 571.012 518.63 571.703 518.933C573.325 519.655 575.104 519.99 576.799 520.534C579.415 521.382 580.546 522.721 580.525 524.834C580.504 526.979 579.175 528.904 576.684 529.27C574.162 529.647 571.525 529.417 568.961 529.218C568.563 529.187 568.249 527.942 567.893 527.251C567.684 527.345 567.475 527.439 567.266 527.534L567.255 527.523Z" fill="white"/>
<path d="M414.246 514.779C413.723 515.334 413.315 515.763 412.907 516.202C412.928 516.004 412.949 515.815 412.97 515.616C410.971 515.219 408.962 514.507 406.963 514.507C404.242 514.518 402.452 516.276 401.531 518.797C400.558 521.455 401.333 523.777 403.258 525.682C405.257 527.67 407.737 527.795 410.322 527.073C410.688 526.969 411.138 526.822 411.358 526.54C412.52 525.085 413.378 525.87 414.246 526.843C411.944 529.731 408.271 530.631 404.776 529.553C401.845 528.653 398.151 524.771 398.706 520.136C399.093 516.914 401.709 513.409 404.493 512.572C408.145 511.473 413.493 512.729 414.246 514.79V514.779Z" fill="white"/>
<path d="M225.709 512.561C227.687 512.007 228.66 512.216 229.351 513.953C230.973 518.044 232.857 522.041 234.751 526.362C235.735 524.154 236.593 522.219 237.451 520.293C238.403 518.148 239.355 516.014 240.318 513.88C241.082 512.185 241.093 512.185 243.374 512.467C242.16 515.229 240.643 517.856 239.889 520.68C239.198 523.244 237.472 525.242 236.771 527.753C236.582 528.444 235.714 529.176 234.992 529.438C233.767 529.877 233.223 529.009 232.731 527.9C230.471 522.804 228.095 517.751 225.699 512.551L225.709 512.561Z" fill="white"/>
<path d="M275.638 529.386H273.095V514.528H267.328V512.373H281.289C281.32 513.064 281.351 513.691 281.393 514.487H275.627V529.386H275.638Z" fill="white"/>
<path d="M344.947 401.394C343.932 402.587 343.053 403.644 342.143 404.669C340.803 406.165 339.453 407.661 338.082 409.126C335.717 411.627 335.707 411.616 331.939 411.198C332.337 410.33 332.735 409.513 333.09 408.676C334.022 406.5 334.901 404.303 335.853 402.137C336.293 401.143 336.858 400.505 338.239 400.767C340.343 401.154 342.509 401.185 344.947 401.394Z" fill="white"/>
<path d="M575.114 400.63C577.741 400.892 580.274 401.154 583.11 401.436C580.117 404.774 577.385 408.08 574.309 411.031C573.545 411.763 571.661 411.334 569.84 411.48C571.703 407.641 573.409 404.136 575.104 400.63H575.114Z" fill="white"/>
<path d="M437.207 512.509C439.781 512.122 440.053 512.54 439.896 514.874C439.771 516.757 440.2 518.672 440.168 520.576C440.116 523.474 439.886 526.362 439.718 529.365H437.207V512.509Z" fill="white"/>
<path d="M460.094 513.22C460.816 513.001 461.601 512.53 462.249 512.666C462.626 512.739 463.045 513.806 463.034 514.413C462.971 518.965 462.846 523.516 462.616 528.067C462.584 528.643 461.873 529.187 461.475 529.752C461.014 529.365 460.565 528.967 460.104 528.59C460.104 523.474 460.104 518.347 460.104 513.22H460.094Z" fill="white"/>
<path d="M245.781 512.352H247.958V529.385C247.319 529.427 246.618 529.469 245.781 529.522V512.342V512.352Z" fill="white"/>
<path d="M606.509 529.438H604.134V512.436C605.63 512.091 606.583 512.101 606.541 514.089C606.436 519.142 606.509 524.196 606.509 529.427V529.438Z" fill="white"/>
<path d="M198.207 481.874C198.741 482.01 199.274 482.146 199.808 482.282C199.693 482.491 199.578 482.701 199.463 482.91C199.044 482.565 198.626 482.219 198.218 481.874H198.207Z" fill="white"/>
<path d="M55.1401 3.06559C54.8784 2.94004 54.6064 2.80402 54.3447 2.67847C54.3761 2.57384 54.4075 2.46921 54.4389 2.36459C54.8052 2.49014 55.161 2.61569 55.5273 2.75171C55.4017 2.85634 55.2656 2.97143 55.1401 3.07606V3.06559Z" fill="white"/>
<path d="M218.08 384.79C218.185 385.03 218.279 385.261 218.384 385.501C218.185 385.365 217.986 385.229 217.787 385.104C217.881 384.999 217.975 384.894 218.08 384.79Z" fill="white"/>
<path d="M200.436 483.475L200.582 483.527H200.426L200.436 483.475Z" fill="white"/>
<path d="M139.31 94.6359L139.216 94.5836L139.331 94.5731L139.31 94.6359Z" fill="white"/>
<path d="M197.872 481.518C197.767 481.34 197.673 481.152 197.569 480.985C197.569 480.985 197.516 481.037 197.506 481.047C197.705 481.079 197.914 481.1 198.123 481.131C198.04 481.267 197.956 481.403 197.872 481.539V481.529V481.518Z" fill="white"/>
<path d="M198.217 481.873C198.102 481.748 197.987 481.633 197.872 481.508V481.518C198.039 481.466 198.206 481.414 198.384 481.361C198.332 481.528 198.269 481.696 198.217 481.863V481.873Z" fill="white"/>
<path d="M63.3237 252.425C62.9888 249.966 62.4656 247.518 62.34 245.059C61.7958 234.534 64.3597 224.667 69.4876 215.554C72.941 209.423 76.7398 203.449 80.7688 197.663C86.0327 190.109 88.5129 181.833 88.3874 172.709C88.3874 171.956 88.3874 171.213 88.3874 170.46C88.5653 170.449 88.7536 170.428 88.9315 170.418C89.1094 172.5 89.4339 174.582 89.4339 176.675C89.392 185.694 86.5141 193.959 82.3595 201.796C78.77 208.555 74.6573 215.031 71.2352 221.863C66.4527 231.416 63.3237 241.471 63.3237 252.415V252.425Z" fill="white"/>
<path d="M151.177 191.406C150.811 191.166 150.455 190.925 150.089 190.674L150.56 190.318C150.748 190.684 150.937 191.061 151.125 191.427L151.167 191.406H151.177Z" fill="white"/>
<path d="M76.7398 138.485C76.991 139.04 77.2421 139.605 77.4828 140.159C77.2421 139.594 76.991 139.029 76.7503 138.454V138.485H76.7398Z" fill="white"/>
<path d="M223.374 276.96C223.27 277.002 223.155 277.096 223.051 277.086C222.977 277.086 222.904 276.95 222.831 276.866C222.998 276.908 223.176 276.95 223.343 276.992L223.364 276.96H223.374Z" fill="white"/>
<path d="M77.4932 140.159L77.5346 140.211L77.4828 140.159H77.4932Z" fill="white"/>
</g>
<defs>
<clipPath id="clip0_2_9">
<rect width="609" height="553" fill="white"/>
</clipPath>
</defs>
</svg>
