<svg id="Menu_icon" xmlns="http://www.w3.org/2000/svg" width="50" height="42.857" viewBox="0 0 50 42.857">
  <path id="Menu_icon-2" data-name="Menu_icon" d="M0,67.571A3.568,3.568,0,0,1,3.571,64H46.429a3.571,3.571,0,1,1,0,7.143H3.571A3.568,3.568,0,0,1,0,67.571ZM0,85.429a3.568,3.568,0,0,1,3.571-3.571H46.429a3.571,3.571,0,1,1,0,7.143H3.571A3.568,3.568,0,0,1,0,85.429Zm50,17.857a3.568,3.568,0,0,1-3.571,3.571H3.571a3.571,3.571,0,1,1,0-7.143H46.429A3.568,3.568,0,0,1,50,103.286Z" transform="translate(0 -64)" fill="#ffdf39"/>
</svg>
