<svg width="707" height="896" viewBox="0 0 707 896" fill="none" xmlns="http://www.w3.org/2000/svg">
<g opacity="0.07" clip-path="url(#clip0_3_59)">
<path d="M191.386 600.266C184.583 591.078 177.876 581.839 170.959 572.736C154.36 550.867 138.952 528.202 126.985 503.061C111.866 471.276 106.703 437.71 109.598 402.466C110.869 387.073 113.104 371.901 119.828 358.068C124.991 347.439 131.006 337.233 137.15 327.181C145.643 313.314 154.73 299.853 163.287 286.037C165.989 281.663 167.871 276.713 170.654 272.153C168.643 278.205 167.324 284.647 164.461 290.224C158.8 301.311 152.27 311.906 146.125 322.722C134.786 342.624 125.521 363.442 120.31 386.124C115.887 405.399 116.305 424.657 120.165 443.931C126.905 477.565 140.657 507.977 158.768 536.339C172.6 558.004 186.4 579.686 200.233 601.351C200.394 601.605 200.651 601.792 200.86 602.012C207.004 611.438 213.325 620.745 219.277 630.323C224.681 639.019 229.731 647.953 234.846 656.853C235.264 657.565 235.248 659.345 234.814 659.633C234.074 660.142 232.691 660.244 231.87 659.854C227.496 657.718 223.298 655.175 218.858 653.208C217.057 652.412 214.805 652.7 212.762 652.479C213.181 654.582 213.181 656.921 214.097 658.752C222.091 674.789 230.986 690.249 241.618 704.489C249.418 714.949 257.444 725.239 265.808 735.19C277.099 748.633 288.825 761.687 300.341 774.943C301.531 776.316 302.48 777.91 303.542 779.385L303.622 779.3C301.708 777.537 299.762 775.808 297.88 774.028C295.532 771.807 293.2 769.569 290.932 767.247C287.844 764.094 284.852 760.856 281.78 757.686C276.07 751.752 270.103 746.09 264.698 739.869C257.589 731.681 251.236 722.73 243.966 714.711C236.937 706.981 231.951 697.742 225.791 689.402C222.96 685.57 220.049 681.807 217.539 677.738C215.609 674.602 214.387 670.991 212.65 667.72C210.141 662.99 207.02 658.565 204.945 653.632C203.482 650.14 203.176 646.054 202.661 642.189C202.372 639.935 204.093 639.24 205.685 640.087C207.921 641.291 209.867 643.088 211.99 644.529C214.033 645.919 216.044 647.411 218.263 648.377C219.277 648.818 221.223 648.529 221.866 647.767C222.445 647.072 222.268 644.986 221.673 644.003C219.502 640.308 217.057 636.798 214.676 633.255C212.248 629.661 209.819 626.068 207.326 622.542C202.034 615.083 196.678 607.674 191.354 600.249L191.386 600.266Z" fill="white"/>
<path d="M343.286 448.797C356.475 458.833 370.742 466.851 385.636 473.683C387.212 474.412 388.869 474.937 390.477 475.548C395.576 477.684 400.578 480.091 405.773 481.888C412.448 484.193 419.236 486.211 426.056 487.957C447.914 493.602 470.094 496.128 492.612 494.483C497.904 494.094 503.196 493.721 508.455 493.127C526.148 491.11 543.454 487.126 560.504 481.786C564.332 480.583 568.144 479.328 571.859 477.819C582.041 473.7 592.334 469.818 602.258 465.088C608.853 461.952 615.801 459.562 622.058 455.578C628.524 451.458 635.312 447.864 641.617 443.474C652.345 436.015 662.783 428.149 672.064 418.689C674.847 415.858 677.822 413.316 681.924 412.688C685.253 412.18 687.73 413.417 687.794 416.96C687.907 423.741 687.827 430.573 687.103 437.303C685.35 453.56 683.291 469.801 681.152 486.007C680.267 492.686 678.868 499.298 677.677 505.926C673.11 531.321 666.756 556.224 657.685 580.228C652.554 593.807 646.201 606.878 640.233 620.1C638.512 623.915 636.309 627.475 634.298 631.136C633.977 631.713 633.462 632.187 632.77 633.018C632.545 630.594 632.416 629 634.427 627.61C635.649 626.763 636.1 624.644 636.791 623.033C639.188 617.507 641.633 611.997 643.868 606.403C646.152 600.707 648.71 595.062 650.27 589.145C652.152 582.008 656.028 575.685 657.395 568.379C658.023 565.056 658.843 561.784 659.695 558.529C660.178 556.665 661.079 554.919 661.529 553.054C663.588 544.612 665.582 536.135 667.56 527.676C668.654 522.997 670.279 518.335 670.568 513.589C670.97 507.13 673.238 501.146 673.769 494.738C674.316 487.974 675.683 481.278 676.133 474.514C676.954 461.969 677.372 449.407 677.935 436.862C677.951 436.354 677.887 435.845 677.822 434.862C676.889 435.557 676.262 435.981 675.683 436.489C667.094 443.83 657.958 450.323 648.469 456.341C637.499 463.308 626.063 469.224 614.257 474.412C608.982 476.734 603.561 478.718 598.221 480.871C579.274 488.516 559.603 493.11 539.594 496.314C517.527 499.857 495.363 500.841 473.086 499.501C465.575 499.044 458.063 498.586 450.616 497.518C443.973 496.569 437.379 495.06 430.865 493.365C420.394 490.635 409.955 487.686 399.597 484.532C395.656 483.329 391.957 481.311 388.145 479.667C380.457 475.48 372.495 471.767 365.177 466.97C358.019 462.291 351.473 456.544 344.718 451.187C344.042 450.662 343.769 449.56 343.318 448.729L343.286 448.78V448.797Z" fill="white"/>
<path d="M117.962 224.314C116.466 222.466 114.777 220.754 113.507 218.753C109.534 212.481 105.722 206.107 101.862 199.784C98.2908 192.918 94.4306 186.188 91.2459 179.119C89.2997 174.813 88.7529 169.812 86.9353 165.421C84.4423 159.437 84.5066 153.419 85.1661 147.163C85.6969 142.078 87.2731 137.551 90.5543 133.839C94.0607 129.872 97.5027 125.736 101.556 122.447C104.821 119.802 108.939 118.327 112.686 116.327C120.937 111.92 129.317 107.766 137.408 103.036C142.249 100.205 146.383 95.9843 151.288 93.3058C158.189 89.5254 162.644 83.5751 166.15 76.7094C167.823 73.4376 168.595 69.6573 169.641 66.0634C170.155 64.3003 169.737 63.0119 167.903 61.9439C161.003 57.9432 154.151 53.8407 147.444 49.484C140.962 45.2798 134.979 40.1263 128.24 36.4476C120.439 32.1756 114.086 25.7507 106.172 21.6312C100.559 18.7154 95.8299 13.901 90.7312 9.9002C88.7046 8.30667 86.7745 6.59449 84.7961 4.95011C84.9892 4.78058 85.1982 4.59411 85.3913 4.42458C93.0474 9.44248 100.655 14.5451 108.36 19.4783C114.616 23.479 120.937 27.3442 127.275 31.1924C131.022 33.4809 134.915 35.5152 138.646 37.8377C150.388 45.1781 161.984 52.8066 173.839 59.9436C184.068 66.0973 194.555 71.7594 204.962 77.574C211.154 81.0323 217.362 84.4906 223.651 87.7454C245.413 99.0187 267.191 110.258 289.034 121.362C292.749 123.244 296.851 124.244 300.663 125.956C307.193 128.889 313.562 132.228 320.109 135.093C325.047 137.246 330.113 139.077 335.196 140.823C340.343 142.603 345.586 144.112 351.666 146.011C350.427 143.688 349.495 142.146 348.771 140.518C343.833 129.33 339.072 118.056 334.022 106.919C326.526 90.407 318.918 73.9462 311.214 57.5363C308.496 51.7386 305.44 46.0935 302.432 40.4653C298.041 32.2265 293.361 24.1741 289.163 15.8335C286.139 9.83239 281.474 6.95049 275.346 6.67925C259.873 5.96725 244.4 5.49258 228.927 4.89925C221.094 4.59411 213.277 4.23811 205.444 3.94992C191.306 3.42439 177.168 2.94973 163.03 2.44116C163.464 1.89868 163.898 1.37316 164.317 0.830684C165.378 1.01716 166.456 1.37316 167.517 1.35621C202.581 0.915446 237.661 0.423827 272.724 1.82223e-05C276.07 -0.0338865 279.641 -0.20341 282.729 0.881541C285.447 1.84783 288.037 4.11944 289.967 6.45887C292.267 9.23905 293.988 12.6295 295.661 15.9352C299.907 24.3436 303.928 32.8876 308.126 41.3299C311.005 47.0937 314.206 52.688 316.988 58.5026C321.669 68.2502 326.205 78.0656 330.66 87.915C338.123 104.427 345.49 120.972 352.84 137.535C354.127 140.433 355.253 143.417 356.153 146.468C356.523 147.706 356.556 149.689 355.88 150.486C355.172 151.3 353.258 151.571 352.084 151.215C331.287 145.061 311.15 136.992 291.27 128.126C254.018 111.513 218.376 91.5258 183.135 70.7253C181.913 69.9963 180.674 69.2843 179.243 68.4367C172.391 86.8978 158.237 96.8149 142.619 105.139C132.229 110.682 121.919 116.361 111.657 122.142C109.341 123.447 107.33 125.397 105.239 127.143C97.2614 133.839 92.7096 142.196 92.9187 153.317C93.2243 169.524 97.7279 184.459 104.515 198.766C108.987 207.293 113.474 215.821 117.946 224.331V224.28L117.962 224.314Z" fill="white"/>
<path d="M369.777 513.08C361.075 505.926 351.875 499.332 343.769 491.483C321.218 469.648 306.678 442.372 296.979 411.993C290.498 391.667 284.225 371.24 277.115 351.134C272.531 338.183 266.484 325.824 257.605 315.399C253.922 311.076 249.676 307.278 245.767 303.159C244.255 301.566 242.872 299.785 241.618 297.955C238.433 293.327 237.918 288.631 241.038 283.545C246.346 274.916 251.091 265.982 253.263 255.811C254.678 249.149 254.614 242.571 252.683 235.994C252.072 233.909 251.091 233.553 249.145 233.604C243.564 233.756 237.966 233.57 232.369 233.01C251.027 228.603 268.591 222.398 281.442 206.327C278.547 215.702 273.239 223.127 265.197 228.128C262.768 229.637 262.012 231.095 262.028 234.112C262.125 249.776 257.991 264.355 250.818 277.985C248.55 282.291 246.395 286.58 247.311 291.733C247.939 295.242 249.917 298.022 252.764 299.633C273.496 311.364 283.951 331.537 291.913 353.389C297.108 367.646 301.258 382.377 305.247 397.075C311.085 418.571 319.9 438.659 329.743 458.358C336.997 472.869 345.087 486.702 357.006 497.518C361.493 501.586 366.351 505.18 371.047 508.995C375.213 511.86 379.186 515.148 383.593 517.522C392.246 522.184 401.077 526.489 409.971 530.609C413.767 532.372 417.901 533.372 421.89 534.644C431.363 537.678 440.837 540.679 450.214 544.205C445.308 542.967 440.387 541.848 435.513 540.492C427.777 538.339 419.96 536.39 412.368 533.745C402.573 530.321 392.922 526.388 383.834 521.082C379.17 518.352 374.457 515.725 369.777 513.046V513.08Z" fill="white"/>
<path d="M131.392 587.23C130.475 580.737 129.478 574.244 128.674 567.735C127.934 561.75 127.419 555.749 127.13 549.731C130.845 563.327 134.561 576.923 138.292 590.519C139.611 595.113 140.834 599.741 142.281 604.284C144.549 611.438 146.785 618.626 149.374 625.661C151.739 632.103 154.602 638.324 157.111 644.698C158.542 648.36 159.556 652.208 161.003 655.853C163.352 661.786 165.78 667.686 168.37 673.517C178.776 696.895 190.051 719.814 202.967 741.751C213.148 759.025 224.23 775.723 235.184 792.455C239.736 799.406 245.011 805.831 249.965 812.493C255.756 820.274 261.385 828.191 267.384 835.802C271.824 841.43 276.681 846.686 281.426 852.026C289.565 861.214 297.671 870.436 305.971 879.488C310.474 884.405 315.332 888.948 320.012 893.678C320.495 894.152 320.8 894.83 320.848 896.017C320.205 895.797 319.401 895.746 318.918 895.322C313.771 890.66 308.737 885.863 303.542 881.268C300.631 878.709 297.253 876.725 294.47 874.03C288.777 868.52 283.388 862.655 277.775 857.061C271.952 851.263 265.873 845.753 260.195 839.82C256.431 835.887 253.166 831.429 249.692 827.207C249.37 826.818 249.177 826.292 248.839 825.919C240.765 816.765 233.543 806.831 225.758 797.422C220.081 790.573 215.465 782.962 210.414 775.655C206.136 769.485 202.099 763.128 198.094 756.753C187.671 740.191 178.599 722.798 170.171 705.049C166.601 697.539 162.982 690.046 159.845 682.333C156.275 673.568 153.251 664.533 149.889 655.666C148.731 652.632 146.994 649.835 145.981 646.75C144.967 643.698 144.63 640.426 143.793 637.307C141.284 627.949 138.518 618.66 136.185 609.251C134.561 602.69 133.483 595.994 132.132 589.366C131.987 588.637 131.682 587.959 131.44 587.264L131.392 587.23Z" fill="white"/>
<path d="M232.289 310.16C233.527 310.974 234.959 311.601 236.004 312.652C250.866 327.52 261.594 345.353 269.861 364.967C278.37 385.158 282.745 406.484 285.897 428.2C289.5 453.052 293.264 477.87 296.819 502.722C299.859 523.964 303.735 545.018 309.284 565.7C309.67 567.141 310.249 568.514 310.732 569.921C312.388 575.312 313.755 580.839 315.782 586.06C318.211 592.315 321.042 598.401 324.001 604.385C326.253 608.912 328.971 613.184 331.512 617.541C332.687 619.541 333.957 621.49 335.18 623.457C335.035 623.626 334.89 623.796 334.729 623.966C327.507 616.1 322.28 606.708 316.474 597.757C311.68 590.366 308.576 582.059 304.314 574.397C300.92 564.92 297.012 555.614 294.245 545.934C287.699 523.184 282.809 500.01 279.689 476.446C276.215 450.255 273.271 423.962 267.384 398.194C260.983 370.172 252.346 343.031 237.741 318.365C236.068 315.534 234.154 312.873 232.353 310.126L232.273 310.16H232.289Z" fill="white"/>
<path d="M302.545 197.003C302.191 218.957 302.336 240.893 305.263 262.677C307.466 279.138 310.056 295.531 312.533 311.94C312.855 314.059 313.498 316.111 313.997 318.196C313.755 318.298 313.498 318.382 313.257 318.484C310.683 310.822 307.869 303.244 305.585 295.48C299.601 275.171 298.202 254.184 297.639 233.078C297.285 219.787 296.915 206.514 296.561 193.223C296.593 187.493 296.706 181.78 296.626 176.05C296.577 173.016 294.374 170.642 290.803 170.693C286.235 170.761 281.683 171.541 277.148 172.236C270.778 173.202 264.425 174.338 258.072 175.457C254.421 176.101 251.188 175.033 248.148 173.033C239.896 167.591 235.988 159.149 233.608 149.639C233.479 149.13 233.398 148.604 233.286 148.011C231.05 148.638 228.943 149.503 226.772 149.774C221.544 150.435 217.169 148.164 213.277 144.739C206.361 138.704 201.713 130.804 197.338 122.735C194.652 117.802 192.255 112.682 189.617 107.427C183.232 116.242 174.916 121.718 164.847 124.312C180.144 116.225 191.306 104.325 196.292 86.491C196.807 89.7967 195.568 95.6452 193.059 100.934C192.207 102.714 192.11 104.104 193.107 105.901C198.431 115.53 203.964 124.973 211.62 132.788C213.309 134.5 215.143 136.111 217.073 137.518C223.957 142.535 231.227 142.858 237.918 137.551C242.02 134.297 245.333 129.906 248.904 125.939C250.046 124.668 250.882 123.074 252.233 121.091C249 129.618 244.995 136.873 239.157 142.807C237.613 144.366 237.323 145.773 238.047 147.553C239.977 152.283 241.569 157.267 244.127 161.59C248.807 169.456 255.193 171.829 263.733 169.625C269.878 168.049 275.925 165.913 282.118 164.641C285.978 163.845 290.079 163.862 294.02 164.15C299.714 164.574 302.191 167.54 302.319 173.643C302.496 181.424 302.464 189.205 302.512 196.986L302.545 197.003Z" fill="white"/>
<path d="M332.333 219.008C329.984 224.924 326.944 230.637 325.433 236.791C320.06 258.49 319.481 280.765 319.127 303.04C319.031 309.398 319.127 315.755 318.5 322.247C317.213 315.755 315.718 309.313 314.704 302.786C312.404 288.122 311.487 273.374 313.466 258.574C315.46 243.622 320.35 229.755 327.797 216.889C328.102 216.346 328.312 215.736 328.553 215.159C335.71 205.48 343.045 195.952 349.945 186.069C355.494 178.119 357.488 168.761 358.035 159.03C358.084 158.064 358.26 157.115 358.646 156.199C360.947 169.931 358.244 182.39 350.074 193.443C344.701 200.699 339.313 207.955 334.021 215.261C333.233 216.346 332.88 217.753 332.333 219.025V219.008Z" fill="white"/>
<path d="M155.309 177.847C155.679 180.492 156.049 183.136 156.403 185.781C156.226 185.883 156.065 186.001 155.888 186.103C154.537 183.374 153.202 180.644 151.851 177.932C149.149 167.489 147.348 156.911 147.348 146.062C147.348 135.941 150.388 133.364 159.7 136.28C163.448 137.45 167.035 139.501 170.396 141.671C179.034 147.265 187.671 152.792 197.708 155.182C203.128 156.47 208.452 156.742 213.325 153.165C213.47 153.063 213.84 153.283 214.113 153.351L214.146 153.232C208.452 159.352 201.31 159.488 194.426 157.182C187.076 154.741 180.095 151.046 173.018 147.757C167.614 145.248 162.387 142.264 156.902 139.976C152.929 138.314 151.626 139.145 151.707 143.637C151.867 151.91 152.591 160.183 153.347 168.439C153.637 171.609 154.634 174.711 155.309 177.847Z" fill="white"/>
<path d="M339.699 225.331C339.78 238.503 339.844 251.658 339.924 264.83C340.005 277.442 341.227 290.14 338.155 302.549C336.74 308.245 334.761 313.822 332.606 319.264C331.754 321.434 329.904 323.315 328.183 324.926C326.285 326.706 323.888 327.113 321.46 326.045C324.355 322.112 327.411 318.501 329.872 314.483C334.44 307.024 336.048 298.497 336.322 289.801C336.788 274.713 336.756 259.591 337.045 244.487C337.174 237.706 337.576 230.925 337.85 224.144C338.268 222.432 338.67 220.703 339.265 218.245C339.442 221.143 339.571 223.246 339.699 225.348V225.331Z" fill="white"/>
<path d="M304.636 780.758C305.456 780.978 306.276 781.199 307.096 781.419C306.92 781.758 306.743 782.097 306.566 782.436C305.922 781.877 305.279 781.317 304.652 780.758H304.636Z" fill="white"/>
<path d="M84.7479 4.96705C84.3458 4.76362 83.9276 4.54324 83.5255 4.33981C83.5737 4.17028 83.622 4.00076 83.6702 3.83124C84.2332 4.03467 84.7801 4.23809 85.343 4.45848C85.15 4.628 84.9409 4.81447 84.7479 4.984V4.96705Z" fill="white"/>
<path d="M335.18 623.457C335.34 623.847 335.485 624.22 335.646 624.61C335.34 624.389 335.035 624.169 334.729 623.966C334.874 623.796 335.019 623.626 335.18 623.457Z" fill="white"/>
<path d="M308.061 783.352L308.286 783.436H308.045L308.061 783.352Z" fill="white"/>
<path d="M214.113 153.334L213.969 153.249L214.146 153.232L214.113 153.334Z" fill="white"/>
<path d="M304.121 780.181C303.96 779.893 303.815 779.588 303.654 779.317C303.654 779.317 303.574 779.402 303.558 779.419C303.864 779.469 304.185 779.503 304.507 779.554C304.378 779.775 304.25 779.995 304.121 780.215V780.198V780.181Z" fill="white"/>
<path d="M304.651 780.756C304.474 780.553 304.298 780.367 304.121 780.164V780.181C304.378 780.096 304.635 780.012 304.908 779.927C304.827 780.198 304.731 780.469 304.651 780.739V780.756Z" fill="white"/>
<path d="M97.3258 408.993C96.8111 405.009 96.0069 401.042 95.8139 397.058C94.9775 380.004 98.9181 364.018 106.799 349.253C112.107 339.319 117.946 329.639 124.138 320.264C132.229 308.024 136.041 294.615 135.848 279.833C135.848 278.612 135.848 277.408 135.848 276.188C136.121 276.171 136.41 276.137 136.684 276.12C136.957 279.494 137.456 282.867 137.456 286.258C137.392 300.871 132.968 314.263 126.583 326.96C121.066 337.911 114.745 348.405 109.485 359.475C102.135 374.952 97.3258 391.244 97.3258 408.976V408.993Z" fill="white"/>
<path d="M232.353 310.126C231.79 309.737 231.243 309.347 230.68 308.94L231.404 308.363C231.694 308.957 231.983 309.567 232.273 310.16L232.337 310.126H232.353Z" fill="white"/>
<path d="M117.946 224.381C118.332 225.28 118.718 226.195 119.088 227.094C118.718 226.178 118.332 225.263 117.962 224.331V224.381H117.946Z" fill="white"/>
<path d="M343.317 448.746C343.156 448.813 342.98 448.966 342.819 448.949C342.707 448.949 342.594 448.729 342.482 448.593C342.739 448.661 343.012 448.729 343.269 448.796L343.301 448.746H343.317Z" fill="white"/>
<path d="M119.104 227.094L119.167 227.178L119.088 227.094H119.104Z" fill="white"/>
</g>
<defs>
<clipPath id="clip0_3_59">
<rect width="707" height="896" fill="white"/>
</clipPath>
</defs>
</svg>
