<svg width="49" height="49" viewBox="0 0 49 49" fill="none" xmlns="http://www.w3.org/2000/svg">
<g clip-path="url(#clip0_3_120)">
<path d="M38.8653 30.8416L33.7318 30.2555C32.4989 30.114 31.2863 30.5384 30.4172 31.4075L26.6984 35.1263C20.9788 32.2159 16.2899 27.5473 13.3795 21.8074L17.1185 18.0684C17.9876 17.1993 18.412 15.9867 18.2705 14.7538L17.6844 9.66074C17.4419 7.61945 15.724 6.08344 13.6625 6.08344H10.166C7.88222 6.08344 5.9824 7.98325 6.12388 10.2671C7.19505 27.527 20.999 41.3108 38.2388 42.382C40.5226 42.5234 42.4224 40.6236 42.4224 38.3398V34.8433C42.4426 32.8021 40.9066 31.0841 38.8653 30.8416Z" fill="#F6A52D"/>
</g>
<defs>
<clipPath id="clip0_3_120">
<rect width="48.5058" height="48.5058" fill="white"/>
</clipPath>
</defs>
</svg>
