<svg width="54" height="53" viewBox="0 0 54 53" fill="none" xmlns="http://www.w3.org/2000/svg">
<g clip-path="url(#clip0_3_2)">
<path d="M26.7486 4.41643C17.4741 4.41643 9.08289 11.5269 9.08289 22.5238C9.08289 29.5459 14.493 37.8046 25.2912 47.322C26.1303 48.0507 27.389 48.0507 28.2281 47.322C39.0042 37.8046 44.4143 29.5459 44.4143 22.5238C44.4143 11.5269 36.0231 4.41643 26.7486 4.41643ZM26.7486 26.4985C24.3195 26.4985 22.3322 24.5112 22.3322 22.0821C22.3322 19.6531 24.3195 17.6657 26.7486 17.6657C29.1776 17.6657 31.165 19.6531 31.165 22.0821C31.165 24.5112 29.1776 26.4985 26.7486 26.4985Z" fill="#F6A52D"/>
</g>
<defs>
<clipPath id="clip0_3_2">
<rect width="52.9971" height="52.9971" fill="white" transform="translate(0.25)"/>
</clipPath>
</defs>
</svg>
